# xmcd CD database file
#
# Track frame offsets:
#	150
#	20835
#	42975
#	65552
#	80702
#	99602
#	117787
#	138505
#	156822
#	176925
#
# Disc length: 2650 seconds
#
# Revision: 0
# Processed by: cddbd v1.5.1PL0 Copyright (c) Steve Scherf et al.
# Submitted via: CDex 1.51
#
DISCID=8e0a580a
DTITLE=MIO - aesthetic
DYEAR=1900
DGENRE=Pop
TTITLE0=シルエット
TTITLE1=Dance W／Me
TTITLE2=悲しみはFREE
TTITLE3=雨のクラクション
TTITLE4=せつなさをさらって〜My Summer Junction〜
TTITLE5=Tonight！
TTITLE6=プライベート・ムーン
TTITLE7=華やかなジェラシー
TTITLE8=Best My Friends
TTITLE9=Last Flight
EXTD=
EXTT0=
EXTT1=
EXTT2=
EXTT3=
EXTT4=
EXTT5=
EXTT6=
EXTT7=
EXTT8=
EXTT9=
PLAYORDER=
